Coordinates
version=1
nRows=29
nColumns=22
inDegrees=yes

Units are S.I. units (second, meters, Newtons, ...)
If the header above contains a line with 'inDegrees', this indicates whether rotational values are in degrees (yes) or radians (no).

endheader
time	pelvis_tilt	pelvis_list	pelvis_rotation	pelvis_tx	pelvis_ty	pelvis_tz	hip_flexion_r	hip_adduction_r	hip_rotation_r	knee_angle_r	ankle_angle_r	subtalar_angle_r	hip_flexion_l	hip_adduction_l	hip_rotation_l	knee_angle_l	ankle_angle_l	subtalar_angle_l	lumbar_extension	lumbar_bending	lumbar_rotation
      0.01000000	     -2.26205138	     -7.57340763	      5.02306781	     -1.05534493	      0.97835629	     -0.25961690	      4.09140963	      8.04787877	     -5.35104164	    -13.72452528	      8.58893209	     -3.69875958	      1.73803046	     -7.88894822	      7.28550393	     -7.97672453	     11.58804709	     -1.74964126	      2.43424119	      6.61321954	     -4.63535363
      0.02000000	     -2.24143240	     -7.43685547	      5.04795493	     -1.05521063	      0.97822461	     -0.25980042	      4.08699125	      7.89477151	     -5.75973931	    -13.86359510	      9.01595996	     -2.96548854	      1.68529945	     -7.73341902	      7.31436661	     -7.95670479	     11.58578112	     -1.77792466	      2.41583239	      6.46716895	     -4.65945745
      0.03000000	     -2.23108138	     -7.30502377	      5.05917157	     -1.05506969	      0.97807473	     -0.25997835	      4.09538541	      7.74553975	     -6.15708523	    -14.01116955	      9.43987963	     -2.15921595	      1.64169518	     -7.58206092	      7.32712341	     -7.93808121	     11.58072942	     -1.80227871	      2.40885427	      6.32664110	     -4.66111632
      0.04000000	     -2.22434514	     -7.17105913	      5.07129440	     -1.05490603	      0.97792887	     -0.26017615	      4.10100185	      7.59333842	     -6.52856561	    -14.14729536	      9.82892533	     -1.45196611	      1.58955389	     -7.42805390	      7.33353274	     -7.89829312	     11.57313850	     -1.82352516	      2.40860830	      6.18362681	     -4.69486987
      0.05000000	     -2.20667942	     -7.07540995	      5.07729551	     -1.05479468	      0.97780288	     -0.26034869	      4.09666939	      7.48322727	     -6.83308277	    -14.26639148	     10.17197342	     -0.75359455	      1.56066980	     -7.31484298	      7.33929736	     -7.91372453	     11.60193675	     -1.85426218	      2.38967064	      6.08297535	     -4.67876776
      0.06000000	     -2.19503430	     -6.99261879	      5.08497644	     -1.05467774	      0.97769983	     -0.26052051	      4.09294443	      7.38673259	     -7.07777379	    -14.35977504	     10.43565767	     -0.25388881	      1.52895429	     -7.21627536	      7.34465273	     -7.90790594	     11.61318619	     -1.87567837	      2.38002468	      5.99524135	     -4.68882011
      0.07000000	     -2.18213659	     -6.91520591	      5.09772995	     -1.05457700	      0.97762745	     -0.26069090	      4.08014709	      7.29815641	     -7.25481719	    -14.42258043	     10.61632070	     -0.00724221	      1.50137977	     -7.12328113	      7.36468203	     -7.90771040	     11.62265649	     -1.88660875	      2.36705766	      5.91107995	     -4.70613408
      0.08000000	     -2.16185415	     -6.89905926	      5.09292335	     -1.05452194	      0.97757715	     -0.26080434	      4.08158919	      7.27570819	     -7.36256870	    -14.49645574	     10.73364718	      0.12881017	      1.48092144	     -7.10025527	      7.34531084	     -7.92330438	     11.65450601	     -1.89976811	      2.34111895	      5.89684593	     -4.71574481
      0.09000000	     -2.15514903	     -6.86981398	      5.10284846	     -1.05444488	      0.97754727	     -0.26094790	      4.07300582	      7.23464974	     -7.42933421	    -14.52122179	     10.81947788	      0.33434883	      1.46799411	     -7.06015754	      7.36095982	     -7.92559517	     11.65935944	     -1.91374511	      2.33574827	      5.86498907	     -4.73726357
      0.10000000	     -2.15606840	     -6.87332410	      5.09892684	     -1.05438200	      0.97752936	     -0.26104337	      4.06978720	      7.23451937	     -7.42868455	    -14.52349104	     10.81945457	      0.33689323	      1.46570624	     -7.05761008	      7.36220739	     -7.92899817	     11.65956450	     -1.91404602	      2.33894595	      5.86712976	     -4.73828388
      0.11000000	     -2.14949307	     -6.88095235	      5.09635485	     -1.05435787	      0.97752728	     -0.26113436	      4.06965285	      7.23638628	     -7.40690366	    -14.53688487	     10.82070213	      0.35156451	      1.46471277	     -7.05989412	      7.36539808	     -7.94392528	     11.67000139	     -1.91886524	      2.32608832	      5.87494555	     -4.75381714
      0.12000000	     -2.14874944	     -6.88614458	      5.09376249	     -1.05430652	      0.97752733	     -0.26123852	      4.06911538	      7.23163787	     -7.39956788	    -14.53902033	     10.81951385	      0.35239642	      1.46299816	     -7.05829537	      7.36671776	     -7.94917278	     11.67200336	     -1.91989212	      2.32419363	      5.88201025	     -4.75886336
      0.13000000	     -2.14106536	     -6.89738366	      5.09161897	     -1.05429945	      0.97753720	     -0.26129839	      4.06975572	      7.23960068	     -7.35090949	    -14.54983463	     10.80766944	      0.34700216	      1.46581959	     -7.06631497	      7.36919065	     -7.97039272	     11.68375878	     -1.92601874	      2.30623934	      5.88983252	     -4.78604795
      0.14000000	     -2.13878733	     -6.91082637	      5.08296228	     -1.05427470	      0.97754340	     -0.26136580	      4.06685732	      7.24909610	     -7.30719062	    -14.54637437	     10.79304043	      0.32776713	      1.47157740	     -7.07505616	      7.36466529	     -7.98976476	     11.69523069	     -1.93331283	      2.29644529	      5.90451702	     -4.80485352
      0.15000000	     -2.14014323	     -6.92669870	      5.07369161	     -1.05425105	      0.97754627	     -0.26142060	      4.06593515	      7.26302874	     -7.26092283	    -14.53965906	     10.77293813	      0.28501796	      1.48224440	     -7.08704548	      7.35042737	     -8.00916478	     11.70695839	     -1.94270417	      2.28958182	      5.92119080	     -4.81949813
      0.16000000	     -2.14314314	     -6.93074484	      5.06337656	     -1.05420144	      0.97754906	     -0.26148097	      4.06629253	      7.26019159	     -7.25964678	    -14.53745556	     10.77186258	      0.28034406	      1.48228936	     -7.08601051	      7.35110576	     -8.01294704	     11.70738380	     -1.94324111	      2.28713982	      5.92490182	     -4.82311899
      0.17000000	     -2.16965760	     -6.95285350	      5.03696385	     -1.05419505	      0.97751621	     -0.26149397	      4.09738377	      7.28419815	     -7.20605792	    -14.53818797	     10.72966549	      0.09331596	      1.52789305	     -7.10318621	      7.31264224	     -8.04919394	     11.73190554	     -1.96152578	      2.30574369	      5.94730680	     -4.82354710
      0.18000000	     -2.17323887	     -6.95460758	      5.02498246	     -1.05415004	      0.97751566	     -0.26152339	      4.09680826	      7.28259289	     -7.20582086	    -14.53562619	     10.73030973	      0.09170151	      1.52928475	     -7.10198702	      7.31474351	     -8.05406118	     11.73073728	     -1.96140715	      2.30104806	      5.94555379	     -4.83096946
      0.19000000	     -2.18036761	     -6.95061436	      5.01767333	     -1.05413344	      0.97751020	     -0.26156467	      4.09789876	      7.27649699	     -7.18027673	    -14.52922609	     10.72961602	      0.07881248	      1.55256788	     -7.09151341	      7.30352395	     -8.08639559	     11.72976897	     -1.96244749	      2.29644832	      5.94045635	     -4.86614639
      0.20000000	     -2.18632130	     -6.95203555	      5.00193491	     -1.05409413	      0.97750501	     -0.26158748	      4.09845704	      7.27495041	     -7.18213132	    -14.52457877	     10.72981446	      0.07756500	      1.55631425	     -7.08983963	      7.30464751	     -8.09203795	     11.73037838	     -1.96248072	      2.29261696	      5.94089663	     -4.87095326
      0.21000000	     -2.21293097	     -6.94799187	      4.98719097	     -1.05409287	      0.97747403	     -0.26160894	      4.11336972	      7.26915839	     -7.15000208	    -14.50443870	     10.72354017	      0.06762803	      1.61593387	     -7.07682344	      7.27102398	     -8.15223687	     11.74389305	     -1.96503139	      2.30814811	      5.93397231	     -4.89415646
      0.22000000	     -2.22009714	     -6.94951448	      4.96865389	     -1.05406163	      0.97746656	     -0.26162297	      4.11573500	      7.26734173	     -7.15253783	    -14.50029952	     10.72395081	      0.06725424	      1.62066850	     -7.07586753	      7.27301566	     -8.15742119	     11.74477997	     -1.96475827	      2.30469828	      5.93577556	     -4.89771396
      0.23000000	     -2.30663324	     -6.95760254	      4.92877335	     -1.05412208	      0.97735452	     -0.26161103	      4.21789249	      7.26701332	     -7.10352308	    -14.51565956	     10.71886442	      0.07029977	      1.75887014	     -7.07010139	      7.22024287	     -8.24244462	     11.78175632	     -1.95525502	      2.38327247	      5.94056295	     -4.88971273
      0.24000000	     -2.32339148	     -6.95332277	      4.91716011	     -1.05411402	      0.97733707	     -0.26163256	      4.21917315	      7.25907700	     -7.09318366	    -14.48979437	     10.72510080	      0.07411719	      1.79158956	     -7.06047969	      7.21606774	     -8.27471275	     11.77661775	     -1.95068697	      2.38916996	      5.93425024	     -4.89953010
      0.25000000	     -2.35351516	     -6.95100265	      4.89377329	     -1.05413255	      0.97730128	     -0.26163932	      4.24148521	      7.25277688	     -7.05888211	    -14.47464241	     10.72339628	      0.08511413	      1.84540831	     -7.05159986	      7.19099045	     -8.31872241	     11.79018704	     -1.94458748	      2.40686027	      5.93113381	     -4.90848394
      0.26000000	     -2.40727368	     -6.95740856	      4.85466232	     -1.05417313	      0.97723546	     -0.26162519	      4.30436097	      7.25152845	     -7.02255327	    -14.48429612	     10.72724131	      0.10623433	      1.92294520	     -7.05134493	      7.15524299	     -8.36128786	     11.80818912	     -1.92384601	      2.44971007	      5.93683596	     -4.89450470
      0.27000000	     -2.42536558	     -6.95599562	      4.83834963	     -1.05418625	      0.97721666	     -0.26164598	      4.30874201	      7.24456732	     -7.00515493	    -14.45940497	     10.73468575	      0.11091325	      1.95650592	     -7.04596735	      7.14539420	     -8.39148501	     11.80761171	     -1.91667861	      2.45556938	      5.93532787	     -4.89200539
      0.28000000	     -2.46036440	     -6.95870056	      4.80292440	     -1.05423663	      0.97717818	     -0.26163897	      4.34327601	      7.24236087	     -6.95010623	    -14.45411147	     10.73311835	      0.11908296	      2.01206496	     -7.04429594	      7.10466509	     -8.42826344	     11.82279008	     -1.90237621	      2.47498814	      5.93847090	     -4.89271169
      0.29000000	     -2.50031801	     -6.96571251	      4.76638960	     -1.05427869	      0.97713441	     -0.26163196	      4.38216414	      7.24185013	     -6.92000163	    -14.44610502	     10.73969604	      0.12387506	      2.06910864	     -7.04796576	      7.07244781	     -8.45954118	     11.82961991	     -1.88028991	      2.50277980	      5.94512374	     -4.85529490
